<?xml version="1.0" standalone="no"?>
<!DOCTYPE svg PUBLIC "-//W3C//DTD SVG 20010904//EN"
 "http://www.w3.org/TR/2001/REC-SVG-20010904/DTD/svg10.dtd">
<svg version="1.0" xmlns="http://www.w3.org/2000/svg"
 width="235.000000pt" height="86.000000pt" viewBox="0 0 235.000000 86.000000"
 preserveAspectRatio="xMidYMid meet">

<g transform="translate(0.000000,86.000000) scale(0.100000,-0.100000)"
fill="#000000" stroke="none">
<path d="M181 747 c-39 -20 -63 -62 -69 -116 -7 -74 18 -130 81 -186 71 -63
97 -102 97 -145 0 -41 -14 -60 -47 -60 -27 0 -43 27 -43 71 0 30 -1 31 -31 25
-17 -3 -38 -6 -46 -6 -13 0 -15 -12 -11 -66 4 -60 7 -70 36 -95 41 -37 99 -39
162 -6 56 29 80 73 80 150 0 78 -20 117 -92 180 -64 55 -88 91 -88 130 0 57
69 64 85 10 8 -31 12 -33 52 -33 43 0 43 0 43 35 0 48 -24 91 -60 110 -35 18
-116 19 -149 2z"/>
<path d="M2019 737 c-58 -39 -73 -131 -34 -206 7 -15 45 -62 84 -105 74 -81
93 -125 72 -165 -13 -23 -50 -28 -69 -9 -7 7 -12 31 -12 55 0 40 -2 43 -27 43
-16 0 -38 3 -50 6 -21 6 -23 3 -23 -33 0 -113 67 -183 173 -183 82 0 126 67
114 172 -8 64 -29 102 -103 180 -64 68 -87 116 -74 153 8 24 45 32 66 15 7 -7
14 -25 14 -41 0 -28 2 -29 50 -29 48 0 50 1 49 28 -1 48 -25 96 -59 120 -46
31 -124 31 -171 -1z"/>
<path d="M440 465 l0 -285 28 0 c72 0 72 0 72 131 l0 119 28 0 c15 0 44 3 65
6 35 6 37 8 37 45 l0 39 -65 0 -65 0 0 75 0 75 80 0 80 0 0 40 0 40 -130 0
-130 0 0 -285z"/>
<path d="M740 478 l0 -273 50 3 50 4 0 269 0 269 -50 0 -50 0 0 -272z"/>
<path d="M900 479 l0 -272 38 7 c20 3 79 6 130 6 l93 0 -3 42 -3 43 -75 1 -75
1 -3 222 -2 221 -50 0 -50 0 0 -271z"/>
<path d="M1190 485 l0 -265 45 0 45 0 1 173 1 172 31 -171 32 -172 44 -6 c24
-3 46 -4 48 -2 2 2 17 77 33 167 l28 164 1 -167 1 -168 50 0 50 0 0 270 0 270
-69 0 c-58 0 -71 -3 -75 -17 -3 -10 -16 -85 -30 -167 -14 -82 -27 -150 -29
-152 -2 -2 -16 67 -32 154 -15 86 -30 163 -33 170 -3 8 -27 12 -73 12 l-69 0
0 -265z"/>
<path d="M1660 476 l0 -273 58 -6 c31 -4 90 -9 130 -13 l72 -7 0 45 c0 45 -1
45 -37 52 -21 3 -57 6 -80 6 l-43 0 0 80 0 80 65 0 65 0 0 39 c0 37 -2 39 -37
45 -21 3 -50 6 -65 6 -28 0 -28 0 -28 70 l0 70 80 0 80 0 0 40 0 40 -130 0
-130 0 0 -274z"/>
</g>
</svg>
